<mxfile host="65bd71144e">
    <diagram id="02y2h3POwJTISqj1grG6" name="Page-1">
        <mxGraphModel dx="1961" dy="988" grid="0" gridSize="10" guides="1" tooltips="1" connect="1" arrows="1" fold="1" page="1" pageScale="1" pageWidth="850" pageHeight="1100" background="#ffffff" math="0" shadow="0">
            <root>
                <mxCell id="0"/>
                <mxCell id="1" parent="0"/>
                <mxCell id="82" value="" style="endArrow=classic;html=1;strokeColor=#000000;fontColor=#000000;strokeWidth=2;" edge="1" parent="1">
                    <mxGeometry width="50" height="50" relative="1" as="geometry">
                        <mxPoint x="164.99999999999977" y="200" as="sourcePoint"/>
                        <mxPoint x="244.99999999999977" y="200" as="targetPoint"/>
                    </mxGeometry>
                </mxCell>
                <mxCell id="83" value="q.push(1)" style="text;html=1;strokeColor=none;fillColor=none;align=center;verticalAlign=middle;whiteSpace=wrap;rounded=0;fontColor=#000000;fontStyle=0" vertex="1" parent="1">
                    <mxGeometry x="171" y="180" width="60" height="20" as="geometry"/>
                </mxCell>
                <mxCell id="87" value="" style="endArrow=classic;html=1;strokeColor=#000000;fontColor=#000000;strokeWidth=2;" edge="1" parent="1">
                    <mxGeometry width="50" height="50" relative="1" as="geometry">
                        <mxPoint x="311.9999999999998" y="200" as="sourcePoint"/>
                        <mxPoint x="391.9999999999998" y="200" as="targetPoint"/>
                    </mxGeometry>
                </mxCell>
                <mxCell id="88" value="q.push(4)" style="text;html=1;strokeColor=none;fillColor=none;align=center;verticalAlign=middle;whiteSpace=wrap;rounded=0;fontColor=#000000;" vertex="1" parent="1">
                    <mxGeometry x="318" y="180" width="60" height="20" as="geometry"/>
                </mxCell>
                <mxCell id="128" value="queue&amp;lt;int&amp;gt; q" style="text;html=1;strokeColor=none;fillColor=none;align=center;verticalAlign=middle;whiteSpace=wrap;rounded=0;fontColor=#000000;fontStyle=1;fontSize=13;" vertex="1" parent="1">
                    <mxGeometry x="60" y="189" width="101" height="20" as="geometry"/>
                </mxCell>
                <mxCell id="130" value="1" style="text;html=1;strokeColor=#FF66FF;fillColor=none;align=center;verticalAlign=middle;whiteSpace=wrap;rounded=0;fontColor=#000000;fontStyle=1;fontSize=14;labelBorderColor=none;strokeWidth=3;" vertex="1" parent="1">
                    <mxGeometry x="298.15999999999997" y="324" width="30" height="30" as="geometry"/>
                </mxCell>
                <mxCell id="181" value="q" style="text;html=1;strokeColor=none;fillColor=none;align=center;verticalAlign=middle;whiteSpace=wrap;rounded=0;fontColor=#000000;fontStyle=1;fontSize=12;labelBorderColor=none;strokeWidth=3;" vertex="1" parent="1">
                    <mxGeometry x="264" y="214" width="30" height="20" as="geometry"/>
                </mxCell>
                <mxCell id="192" value="" style="endArrow=none;dashed=1;html=1;fontSize=12;fontColor=#66FFFF;strokeColor=#808080;" edge="1" parent="1">
                    <mxGeometry width="50" height="50" relative="1" as="geometry">
                        <mxPoint x="-71" y="271" as="sourcePoint"/>
                        <mxPoint x="848.9999999999999" y="271" as="targetPoint"/>
                    </mxGeometry>
                </mxCell>
                <mxCell id="193" value="" style="endArrow=none;dashed=1;html=1;fontSize=12;fontColor=#66FFFF;strokeColor=#808080;" edge="1" parent="1">
                    <mxGeometry width="50" height="50" relative="1" as="geometry">
                        <mxPoint x="-65" y="417" as="sourcePoint"/>
                        <mxPoint x="946" y="417" as="targetPoint"/>
                    </mxGeometry>
                </mxCell>
                <mxCell id="194" value="" style="endArrow=none;dashed=1;html=1;fontSize=12;fontColor=#66FFFF;strokeColor=#808080;" edge="1" parent="1">
                    <mxGeometry width="50" height="50" relative="1" as="geometry">
                        <mxPoint x="-120" y="574" as="sourcePoint"/>
                        <mxPoint x="919" y="574" as="targetPoint"/>
                    </mxGeometry>
                </mxCell>
                <mxCell id="195" value="&lt;font color=&quot;#ffffff&quot;&gt;s.top()&lt;/font&gt;" style="text;html=1;strokeColor=none;fillColor=none;align=center;verticalAlign=middle;whiteSpace=wrap;rounded=0;fontColor=#000000;" vertex="1" parent="1">
                    <mxGeometry x="556" y="83" width="60" height="20" as="geometry"/>
                </mxCell>
                <mxCell id="197" value="1" style="rounded=0;whiteSpace=wrap;html=1;fillColor=#FF66FF;strokeColor=#000000;fontStyle=1;fontSize=13;fontColor=#000000;strokeWidth=2;" vertex="1" parent="1">
                    <mxGeometry x="259" y="184" width="40" height="30" as="geometry"/>
                </mxCell>
                <mxCell id="198" value="1" style="rounded=0;whiteSpace=wrap;html=1;fillColor=#FF66FF;strokeColor=#000000;fontStyle=1;fontSize=13;fontColor=#000000;strokeWidth=2;" vertex="1" parent="1">
                    <mxGeometry x="405" y="184" width="40" height="30" as="geometry"/>
                </mxCell>
                <mxCell id="199" value="4" style="rounded=0;whiteSpace=wrap;html=1;fillColor=#F0F0F0;strokeColor=#000000;fontStyle=1;fontSize=13;fontColor=#000000;strokeWidth=2;" vertex="1" parent="1">
                    <mxGeometry x="445" y="184" width="40" height="30" as="geometry"/>
                </mxCell>
                <mxCell id="200" value="q" style="text;html=1;strokeColor=none;fillColor=none;align=center;verticalAlign=middle;whiteSpace=wrap;rounded=0;fontColor=#000000;fontStyle=1;fontSize=12;labelBorderColor=none;strokeWidth=3;" vertex="1" parent="1">
                    <mxGeometry x="430.28" y="214" width="30" height="20" as="geometry"/>
                </mxCell>
                <mxCell id="201" value="1" style="rounded=0;whiteSpace=wrap;html=1;fillColor=#FF66FF;strokeColor=#000000;fontStyle=1;fontSize=13;fontColor=#000000;strokeWidth=2;" vertex="1" parent="1">
                    <mxGeometry x="586.66" y="184" width="40" height="30" as="geometry"/>
                </mxCell>
                <mxCell id="202" value="4" style="rounded=0;whiteSpace=wrap;html=1;fillColor=#F0F0F0;strokeColor=#000000;fontStyle=1;fontSize=13;fontColor=#000000;strokeWidth=2;" vertex="1" parent="1">
                    <mxGeometry x="626.66" y="184" width="40" height="30" as="geometry"/>
                </mxCell>
                <mxCell id="203" value="q" style="text;html=1;strokeColor=none;fillColor=none;align=center;verticalAlign=middle;whiteSpace=wrap;rounded=0;fontColor=#000000;fontStyle=1;fontSize=12;labelBorderColor=none;strokeWidth=3;" vertex="1" parent="1">
                    <mxGeometry x="631.66" y="214" width="30" height="20" as="geometry"/>
                </mxCell>
                <mxCell id="204" value="" style="endArrow=classic;html=1;strokeColor=#000000;fontColor=#000000;strokeWidth=2;" edge="1" parent="1">
                    <mxGeometry width="50" height="50" relative="1" as="geometry">
                        <mxPoint x="495.9999999999998" y="199.31" as="sourcePoint"/>
                        <mxPoint x="575.9999999999998" y="199.31" as="targetPoint"/>
                    </mxGeometry>
                </mxCell>
                <mxCell id="205" value="q.push(7)" style="text;html=1;strokeColor=none;fillColor=none;align=center;verticalAlign=middle;whiteSpace=wrap;rounded=0;fontColor=#000000;" vertex="1" parent="1">
                    <mxGeometry x="502" y="179.31" width="60" height="20" as="geometry"/>
                </mxCell>
                <mxCell id="208" value="7" style="rounded=0;whiteSpace=wrap;html=1;fillColor=#F0F0F0;strokeColor=#000000;fontStyle=1;fontSize=13;fontColor=#000000;strokeWidth=2;" vertex="1" parent="1">
                    <mxGeometry x="666.66" y="184" width="40" height="30" as="geometry"/>
                </mxCell>
                <mxCell id="210" value="1" style="rounded=0;whiteSpace=wrap;html=1;fillColor=#FF66FF;strokeColor=#000000;fontStyle=1;fontSize=13;fontColor=#000000;strokeWidth=2;" vertex="1" parent="1">
                    <mxGeometry x="76.16" y="324" width="40" height="30" as="geometry"/>
                </mxCell>
                <mxCell id="211" value="4" style="rounded=0;whiteSpace=wrap;html=1;fillColor=#F0F0F0;strokeColor=#000000;fontStyle=1;fontSize=13;fontColor=#000000;strokeWidth=2;" vertex="1" parent="1">
                    <mxGeometry x="116.16" y="324" width="40" height="30" as="geometry"/>
                </mxCell>
                <mxCell id="212" value="q" style="text;html=1;strokeColor=none;fillColor=none;align=center;verticalAlign=middle;whiteSpace=wrap;rounded=0;fontColor=#000000;fontStyle=1;fontSize=12;labelBorderColor=none;strokeWidth=3;" vertex="1" parent="1">
                    <mxGeometry x="121.16" y="354" width="30" height="20" as="geometry"/>
                </mxCell>
                <mxCell id="213" value="7" style="rounded=0;whiteSpace=wrap;html=1;fillColor=#F0F0F0;strokeColor=#000000;fontStyle=1;fontSize=13;fontColor=#000000;strokeWidth=2;" vertex="1" parent="1">
                    <mxGeometry x="156.16" y="324" width="40" height="30" as="geometry"/>
                </mxCell>
                <mxCell id="214" value="" style="endArrow=classic;html=1;strokeColor=#000000;fontColor=#000000;strokeWidth=2;" edge="1" parent="1">
                    <mxGeometry width="50" height="50" relative="1" as="geometry">
                        <mxPoint x="207.15999999999977" y="339" as="sourcePoint"/>
                        <mxPoint x="287.15999999999974" y="339" as="targetPoint"/>
                    </mxGeometry>
                </mxCell>
                <mxCell id="215" value="q.front()" style="text;html=1;strokeColor=none;fillColor=none;align=center;verticalAlign=middle;whiteSpace=wrap;rounded=0;fontColor=#000000;fontStyle=0" vertex="1" parent="1">
                    <mxGeometry x="213.16" y="319" width="60" height="20" as="geometry"/>
                </mxCell>
                <mxCell id="216" value="3" style="text;html=1;strokeColor=#FF66FF;fillColor=none;align=center;verticalAlign=middle;whiteSpace=wrap;rounded=0;fontColor=#000000;fontStyle=1;fontSize=14;labelBorderColor=none;strokeWidth=3;" vertex="1" parent="1">
                    <mxGeometry x="673.16" y="324" width="30" height="30" as="geometry"/>
                </mxCell>
                <mxCell id="217" value="1" style="rounded=0;whiteSpace=wrap;html=1;fillColor=#FF66FF;strokeColor=#000000;fontStyle=1;fontSize=13;fontColor=#000000;strokeWidth=2;" vertex="1" parent="1">
                    <mxGeometry x="451.15999999999997" y="324" width="40" height="30" as="geometry"/>
                </mxCell>
                <mxCell id="218" value="4" style="rounded=0;whiteSpace=wrap;html=1;fillColor=#F0F0F0;strokeColor=#000000;fontStyle=1;fontSize=13;fontColor=#000000;strokeWidth=2;" vertex="1" parent="1">
                    <mxGeometry x="491.15999999999997" y="324" width="40" height="30" as="geometry"/>
                </mxCell>
                <mxCell id="219" value="q" style="text;html=1;strokeColor=none;fillColor=none;align=center;verticalAlign=middle;whiteSpace=wrap;rounded=0;fontColor=#000000;fontStyle=1;fontSize=12;labelBorderColor=none;strokeWidth=3;" vertex="1" parent="1">
                    <mxGeometry x="496.15999999999997" y="354" width="30" height="20" as="geometry"/>
                </mxCell>
                <mxCell id="220" value="7" style="rounded=0;whiteSpace=wrap;html=1;fillColor=#F0F0F0;strokeColor=#000000;fontStyle=1;fontSize=13;fontColor=#000000;strokeWidth=2;" vertex="1" parent="1">
                    <mxGeometry x="531.16" y="324" width="40" height="30" as="geometry"/>
                </mxCell>
                <mxCell id="221" value="" style="endArrow=classic;html=1;strokeColor=#000000;fontColor=#000000;strokeWidth=2;" edge="1" parent="1">
                    <mxGeometry width="50" height="50" relative="1" as="geometry">
                        <mxPoint x="582.1599999999997" y="339" as="sourcePoint"/>
                        <mxPoint x="662.1599999999997" y="339" as="targetPoint"/>
                    </mxGeometry>
                </mxCell>
                <mxCell id="222" value="q.size()" style="text;html=1;strokeColor=none;fillColor=none;align=center;verticalAlign=middle;whiteSpace=wrap;rounded=0;fontColor=#000000;fontStyle=0" vertex="1" parent="1">
                    <mxGeometry x="588.16" y="319" width="60" height="20" as="geometry"/>
                </mxCell>
                <mxCell id="223" value="1" style="rounded=0;whiteSpace=wrap;html=1;fillColor=#FF66FF;strokeColor=#000000;fontStyle=1;fontSize=13;fontColor=#000000;strokeWidth=2;" vertex="1" parent="1">
                    <mxGeometry x="76.16" y="482.31" width="40" height="30" as="geometry"/>
                </mxCell>
                <mxCell id="224" value="4" style="rounded=0;whiteSpace=wrap;html=1;fillColor=#F0F0F0;strokeColor=#000000;fontStyle=1;fontSize=13;fontColor=#000000;strokeWidth=2;" vertex="1" parent="1">
                    <mxGeometry x="116.16" y="482.31" width="40" height="30" as="geometry"/>
                </mxCell>
                <mxCell id="225" value="q" style="text;html=1;strokeColor=none;fillColor=none;align=center;verticalAlign=middle;whiteSpace=wrap;rounded=0;fontColor=#000000;fontStyle=1;fontSize=12;labelBorderColor=none;strokeWidth=3;" vertex="1" parent="1">
                    <mxGeometry x="121.16" y="512.31" width="30" height="20" as="geometry"/>
                </mxCell>
                <mxCell id="226" value="7" style="rounded=0;whiteSpace=wrap;html=1;fillColor=#F0F0F0;strokeColor=#000000;fontStyle=1;fontSize=13;fontColor=#000000;strokeWidth=2;" vertex="1" parent="1">
                    <mxGeometry x="156.16" y="482.31" width="40" height="30" as="geometry"/>
                </mxCell>
                <mxCell id="227" value="" style="endArrow=classic;html=1;strokeColor=#000000;fontColor=#000000;strokeWidth=2;" edge="1" parent="1">
                    <mxGeometry width="50" height="50" relative="1" as="geometry">
                        <mxPoint x="207.15999999999985" y="497.31" as="sourcePoint"/>
                        <mxPoint x="287.15999999999985" y="497.31" as="targetPoint"/>
                    </mxGeometry>
                </mxCell>
                <mxCell id="228" value="q.pop()" style="text;html=1;strokeColor=none;fillColor=none;align=center;verticalAlign=middle;whiteSpace=wrap;rounded=0;fontColor=#000000;fontStyle=0" vertex="1" parent="1">
                    <mxGeometry x="213.16" y="477.31" width="60" height="20" as="geometry"/>
                </mxCell>
                <mxCell id="229" value="4" style="rounded=0;whiteSpace=wrap;html=1;fillColor=#FF66FF;strokeColor=#000000;fontStyle=1;fontSize=13;fontColor=#000000;strokeWidth=2;" vertex="1" parent="1">
                    <mxGeometry x="299" y="482.31" width="40" height="30" as="geometry"/>
                </mxCell>
                <mxCell id="230" value="7" style="rounded=0;whiteSpace=wrap;html=1;fillColor=#F0F0F0;strokeColor=#000000;fontStyle=1;fontSize=13;fontColor=#000000;strokeWidth=2;" vertex="1" parent="1">
                    <mxGeometry x="339" y="482.31" width="40" height="30" as="geometry"/>
                </mxCell>
                <mxCell id="231" value="q" style="text;html=1;strokeColor=none;fillColor=none;align=center;verticalAlign=middle;whiteSpace=wrap;rounded=0;fontColor=#000000;fontStyle=1;fontSize=12;labelBorderColor=none;strokeWidth=3;" vertex="1" parent="1">
                    <mxGeometry x="324" y="512.31" width="30" height="20" as="geometry"/>
                </mxCell>
                <mxCell id="233" value="4" style="rounded=0;whiteSpace=wrap;html=1;fillColor=#FF66FF;strokeColor=#000000;fontStyle=1;fontSize=13;fontColor=#000000;strokeWidth=2;" vertex="1" parent="1">
                    <mxGeometry x="479.31999999999994" y="482" width="40" height="30" as="geometry"/>
                </mxCell>
                <mxCell id="234" value="7" style="rounded=0;whiteSpace=wrap;html=1;fillColor=#F0F0F0;strokeColor=#000000;fontStyle=1;fontSize=13;fontColor=#000000;strokeWidth=2;" vertex="1" parent="1">
                    <mxGeometry x="519.3199999999999" y="482" width="40" height="30" as="geometry"/>
                </mxCell>
                <mxCell id="235" value="q" style="text;html=1;strokeColor=none;fillColor=none;align=center;verticalAlign=middle;whiteSpace=wrap;rounded=0;fontColor=#000000;fontStyle=1;fontSize=12;labelBorderColor=none;strokeWidth=3;" vertex="1" parent="1">
                    <mxGeometry x="524.3199999999999" y="512" width="30" height="20" as="geometry"/>
                </mxCell>
                <mxCell id="236" value="" style="endArrow=classic;html=1;strokeColor=#000000;fontColor=#000000;strokeWidth=2;" edge="1" parent="1">
                    <mxGeometry width="50" height="50" relative="1" as="geometry">
                        <mxPoint x="388.65999999999997" y="497.30999999999995" as="sourcePoint"/>
                        <mxPoint x="468.65999999999997" y="497.30999999999995" as="targetPoint"/>
                    </mxGeometry>
                </mxCell>
                <mxCell id="237" value="q.push(5)" style="text;html=1;strokeColor=none;fillColor=none;align=center;verticalAlign=middle;whiteSpace=wrap;rounded=0;fontColor=#000000;" vertex="1" parent="1">
                    <mxGeometry x="394.65999999999997" y="477.31" width="60" height="20" as="geometry"/>
                </mxCell>
                <mxCell id="238" value="5" style="rounded=0;whiteSpace=wrap;html=1;fillColor=#F0F0F0;strokeColor=#000000;fontStyle=1;fontSize=13;fontColor=#000000;strokeWidth=2;" vertex="1" parent="1">
                    <mxGeometry x="559.3199999999999" y="482" width="40" height="30" as="geometry"/>
                </mxCell>
                <mxCell id="239" value="4" style="text;html=1;strokeColor=#FF66FF;fillColor=none;align=center;verticalAlign=middle;whiteSpace=wrap;rounded=0;fontColor=#000000;fontStyle=1;fontSize=14;labelBorderColor=none;strokeWidth=3;" vertex="1" parent="1">
                    <mxGeometry x="701.66" y="482" width="30" height="30" as="geometry"/>
                </mxCell>
                <mxCell id="240" value="" style="endArrow=classic;html=1;strokeColor=#000000;fontColor=#000000;strokeWidth=2;" edge="1" parent="1">
                    <mxGeometry width="50" height="50" relative="1" as="geometry">
                        <mxPoint x="610.6599999999999" y="497" as="sourcePoint"/>
                        <mxPoint x="690.6599999999999" y="497" as="targetPoint"/>
                    </mxGeometry>
                </mxCell>
                <mxCell id="241" value="q.front()" style="text;html=1;strokeColor=none;fillColor=none;align=center;verticalAlign=middle;whiteSpace=wrap;rounded=0;fontColor=#000000;fontStyle=0" vertex="1" parent="1">
                    <mxGeometry x="616.66" y="477" width="60" height="20" as="geometry"/>
                </mxCell>
                <mxCell id="242" value="4" style="rounded=0;whiteSpace=wrap;html=1;fillColor=#FF66FF;strokeColor=#000000;fontStyle=1;fontSize=13;fontColor=#000000;strokeWidth=2;" vertex="1" parent="1">
                    <mxGeometry x="19.999999999999915" y="630" width="40" height="30" as="geometry"/>
                </mxCell>
                <mxCell id="243" value="7" style="rounded=0;whiteSpace=wrap;html=1;fillColor=#F0F0F0;strokeColor=#000000;fontStyle=1;fontSize=13;fontColor=#000000;strokeWidth=2;" vertex="1" parent="1">
                    <mxGeometry x="59.999999999999915" y="630" width="40" height="30" as="geometry"/>
                </mxCell>
                <mxCell id="244" value="q" style="text;html=1;strokeColor=none;fillColor=none;align=center;verticalAlign=middle;whiteSpace=wrap;rounded=0;fontColor=#000000;fontStyle=1;fontSize=12;labelBorderColor=none;strokeWidth=3;" vertex="1" parent="1">
                    <mxGeometry x="64.99999999999991" y="660" width="30" height="20" as="geometry"/>
                </mxCell>
                <mxCell id="245" value="5" style="rounded=0;whiteSpace=wrap;html=1;fillColor=#F0F0F0;strokeColor=#000000;fontStyle=1;fontSize=13;fontColor=#000000;strokeWidth=2;" vertex="1" parent="1">
                    <mxGeometry x="99.99999999999991" y="630" width="40" height="30" as="geometry"/>
                </mxCell>
                <mxCell id="247" value="" style="endArrow=classic;html=1;strokeColor=#000000;fontColor=#000000;strokeWidth=2;" edge="1" parent="1">
                    <mxGeometry width="50" height="50" relative="1" as="geometry">
                        <mxPoint x="151.33999999999983" y="645" as="sourcePoint"/>
                        <mxPoint x="231.33999999999983" y="645" as="targetPoint"/>
                    </mxGeometry>
                </mxCell>
                <mxCell id="248" value="q.pop()" style="text;html=1;strokeColor=none;fillColor=none;align=center;verticalAlign=middle;whiteSpace=wrap;rounded=0;fontColor=#000000;fontStyle=0" vertex="1" parent="1">
                    <mxGeometry x="157.33999999999995" y="625" width="60" height="20" as="geometry"/>
                </mxCell>
                <mxCell id="249" value="7" style="rounded=0;whiteSpace=wrap;html=1;fillColor=#FF66FF;strokeColor=#000000;fontStyle=1;fontSize=13;fontColor=#000000;strokeWidth=2;" vertex="1" parent="1">
                    <mxGeometry x="242.84" y="630" width="40" height="30" as="geometry"/>
                </mxCell>
                <mxCell id="250" value="5" style="rounded=0;whiteSpace=wrap;html=1;fillColor=#F0F0F0;strokeColor=#000000;fontStyle=1;fontSize=13;fontColor=#000000;strokeWidth=2;" vertex="1" parent="1">
                    <mxGeometry x="282.84" y="630" width="40" height="30" as="geometry"/>
                </mxCell>
                <mxCell id="251" value="q" style="text;html=1;strokeColor=none;fillColor=none;align=center;verticalAlign=middle;whiteSpace=wrap;rounded=0;fontColor=#000000;fontStyle=1;fontSize=12;labelBorderColor=none;strokeWidth=3;" vertex="1" parent="1">
                    <mxGeometry x="267.84" y="660" width="30" height="20" as="geometry"/>
                </mxCell>
                <mxCell id="252" value="" style="endArrow=classic;html=1;strokeColor=#000000;fontColor=#000000;strokeWidth=2;" edge="1" parent="1">
                    <mxGeometry width="50" height="50" relative="1" as="geometry">
                        <mxPoint x="338.49999999999994" y="645" as="sourcePoint"/>
                        <mxPoint x="418.49999999999994" y="645" as="targetPoint"/>
                    </mxGeometry>
                </mxCell>
                <mxCell id="253" value="q.front()" style="text;html=1;strokeColor=none;fillColor=none;align=center;verticalAlign=middle;whiteSpace=wrap;rounded=0;fontColor=#000000;fontStyle=0" vertex="1" parent="1">
                    <mxGeometry x="344.49999999999994" y="625" width="60" height="20" as="geometry"/>
                </mxCell>
                <mxCell id="254" value="7" style="text;html=1;strokeColor=#FF66FF;fillColor=none;align=center;verticalAlign=middle;whiteSpace=wrap;rounded=0;fontColor=#000000;fontStyle=1;fontSize=14;labelBorderColor=none;strokeWidth=3;" vertex="1" parent="1">
                    <mxGeometry x="428.84" y="630" width="30" height="30" as="geometry"/>
                </mxCell>
                <mxCell id="255" value="7" style="rounded=0;whiteSpace=wrap;html=1;fillColor=#FF66FF;strokeColor=#000000;fontStyle=1;fontSize=13;fontColor=#000000;strokeWidth=2;" vertex="1" parent="1">
                    <mxGeometry x="554.56" y="630" width="40" height="30" as="geometry"/>
                </mxCell>
                <mxCell id="256" value="5" style="rounded=0;whiteSpace=wrap;html=1;fillColor=#F0F0F0;strokeColor=#000000;fontStyle=1;fontSize=13;fontColor=#000000;strokeWidth=2;" vertex="1" parent="1">
                    <mxGeometry x="594.56" y="630" width="40" height="30" as="geometry"/>
                </mxCell>
                <mxCell id="257" value="q" style="text;html=1;strokeColor=none;fillColor=none;align=center;verticalAlign=middle;whiteSpace=wrap;rounded=0;fontColor=#000000;fontStyle=1;fontSize=12;labelBorderColor=none;strokeWidth=3;" vertex="1" parent="1">
                    <mxGeometry x="579.56" y="660" width="30" height="20" as="geometry"/>
                </mxCell>
                <mxCell id="258" value="" style="endArrow=classic;html=1;strokeColor=#000000;fontColor=#000000;strokeWidth=2;" edge="1" parent="1">
                    <mxGeometry width="50" height="50" relative="1" as="geometry">
                        <mxPoint x="650.2199999999998" y="645" as="sourcePoint"/>
                        <mxPoint x="730.2199999999998" y="645" as="targetPoint"/>
                    </mxGeometry>
                </mxCell>
                <mxCell id="259" value="q.empty()" style="text;html=1;strokeColor=none;fillColor=none;align=center;verticalAlign=middle;whiteSpace=wrap;rounded=0;fontColor=#000000;fontStyle=0" vertex="1" parent="1">
                    <mxGeometry x="656.2199999999999" y="625" width="60" height="20" as="geometry"/>
                </mxCell>
                <mxCell id="260" value="false" style="text;html=1;strokeColor=#FF66FF;fillColor=none;align=center;verticalAlign=middle;whiteSpace=wrap;rounded=0;fontColor=#000000;fontStyle=1;fontSize=14;labelBorderColor=none;strokeWidth=3;" vertex="1" parent="1">
                    <mxGeometry x="740.56" y="630" width="58" height="30" as="geometry"/>
                </mxCell>
                <mxCell id="261" value="" style="endArrow=none;dashed=1;html=1;fontSize=12;fontColor=#66FFFF;strokeColor=#808080;" edge="1" parent="1">
                    <mxGeometry width="50" height="50" relative="1" as="geometry">
                        <mxPoint x="-53" y="733" as="sourcePoint"/>
                        <mxPoint x="914" y="733" as="targetPoint"/>
                    </mxGeometry>
                </mxCell>
                <mxCell id="262" value="&lt;font color=&quot;#ffffff&quot;&gt;s.top()&lt;/font&gt;" style="text;html=1;strokeColor=none;fillColor=none;align=center;verticalAlign=middle;whiteSpace=wrap;rounded=0;fontColor=#000000;" vertex="1" parent="1">
                    <mxGeometry x="-60" y="635" width="60" height="20" as="geometry"/>
                </mxCell>
                <mxCell id="263" value="7" style="rounded=0;whiteSpace=wrap;html=1;fillColor=#FF66FF;strokeColor=#000000;fontStyle=1;fontSize=13;fontColor=#000000;strokeWidth=2;" vertex="1" parent="1">
                    <mxGeometry x="19.99999999999997" y="791" width="40" height="30" as="geometry"/>
                </mxCell>
                <mxCell id="264" value="5" style="rounded=0;whiteSpace=wrap;html=1;fillColor=#F0F0F0;strokeColor=#000000;fontStyle=1;fontSize=13;fontColor=#000000;strokeWidth=2;" vertex="1" parent="1">
                    <mxGeometry x="59.99999999999997" y="791" width="40" height="30" as="geometry"/>
                </mxCell>
                <mxCell id="265" value="q" style="text;html=1;strokeColor=none;fillColor=none;align=center;verticalAlign=middle;whiteSpace=wrap;rounded=0;fontColor=#000000;fontStyle=1;fontSize=12;labelBorderColor=none;strokeWidth=3;" vertex="1" parent="1">
                    <mxGeometry x="44.99999999999997" y="821" width="30" height="20" as="geometry"/>
                </mxCell>
                <mxCell id="266" value="" style="endArrow=classic;html=1;strokeColor=#000000;fontColor=#000000;strokeWidth=2;" edge="1" parent="1">
                    <mxGeometry width="50" height="50" relative="1" as="geometry">
                        <mxPoint x="115.65999999999983" y="806" as="sourcePoint"/>
                        <mxPoint x="195.65999999999983" y="806" as="targetPoint"/>
                    </mxGeometry>
                </mxCell>
                <mxCell id="267" value="q.pop()" style="text;html=1;strokeColor=none;fillColor=none;align=center;verticalAlign=middle;whiteSpace=wrap;rounded=0;fontColor=#000000;fontStyle=0" vertex="1" parent="1">
                    <mxGeometry x="121.65999999999994" y="786" width="60" height="20" as="geometry"/>
                </mxCell>
                <mxCell id="269" value="q" style="text;html=1;strokeColor=none;fillColor=none;align=center;verticalAlign=middle;whiteSpace=wrap;rounded=0;fontColor=#000000;fontStyle=1;fontSize=12;labelBorderColor=none;strokeWidth=3;" vertex="1" parent="1">
                    <mxGeometry x="211.67999999999998" y="821" width="30" height="20" as="geometry"/>
                </mxCell>
                <mxCell id="270" value="5" style="rounded=0;whiteSpace=wrap;html=1;fillColor=#FF66FF;strokeColor=#000000;fontStyle=1;fontSize=13;fontColor=#000000;strokeWidth=2;" vertex="1" parent="1">
                    <mxGeometry x="206.67999999999998" y="791" width="40" height="30" as="geometry"/>
                </mxCell>
                <mxCell id="271" value="" style="endArrow=classic;html=1;strokeColor=#000000;fontColor=#000000;strokeWidth=2;" edge="1" parent="1">
                    <mxGeometry width="50" height="50" relative="1" as="geometry">
                        <mxPoint x="261.8399999999997" y="806" as="sourcePoint"/>
                        <mxPoint x="341.8399999999997" y="806" as="targetPoint"/>
                    </mxGeometry>
                </mxCell>
                <mxCell id="272" value="q.pop()" style="text;html=1;strokeColor=none;fillColor=none;align=center;verticalAlign=middle;whiteSpace=wrap;rounded=0;fontColor=#000000;fontStyle=0" vertex="1" parent="1">
                    <mxGeometry x="267.8399999999999" y="786" width="60" height="20" as="geometry"/>
                </mxCell>
                <mxCell id="275" value="q" style="text;html=1;strokeColor=none;fillColor=none;align=center;verticalAlign=middle;whiteSpace=wrap;rounded=0;fontColor=#000000;fontStyle=1;fontSize=18;labelBorderColor=none;strokeWidth=3;" vertex="1" parent="1">
                    <mxGeometry x="344.12" y="791" width="30" height="30" as="geometry"/>
                </mxCell>
                <mxCell id="276" value="" style="endArrow=classic;html=1;strokeColor=#000000;fontColor=#000000;strokeWidth=2;" edge="1" parent="1">
                    <mxGeometry width="50" height="50" relative="1" as="geometry">
                        <mxPoint x="375.05999999999983" y="806" as="sourcePoint"/>
                        <mxPoint x="455.05999999999983" y="806" as="targetPoint"/>
                    </mxGeometry>
                </mxCell>
                <mxCell id="277" value="q.empty()" style="text;html=1;strokeColor=none;fillColor=none;align=center;verticalAlign=middle;whiteSpace=wrap;rounded=0;fontColor=#000000;fontStyle=0" vertex="1" parent="1">
                    <mxGeometry x="381.05999999999995" y="786" width="60" height="20" as="geometry"/>
                </mxCell>
                <mxCell id="278" value="true" style="text;html=1;strokeColor=#FF66FF;fillColor=none;align=center;verticalAlign=middle;whiteSpace=wrap;rounded=0;fontColor=#000000;fontStyle=1;fontSize=14;labelBorderColor=none;strokeWidth=3;" vertex="1" parent="1">
                    <mxGeometry x="465.4" y="791" width="58" height="30" as="geometry"/>
                </mxCell>
                <mxCell id="279" value="q" style="text;html=1;strokeColor=none;fillColor=none;align=center;verticalAlign=middle;whiteSpace=wrap;rounded=0;fontColor=#000000;fontStyle=1;fontSize=18;labelBorderColor=none;strokeWidth=3;" vertex="1" parent="1">
                    <mxGeometry x="643.56" y="791" width="30" height="30" as="geometry"/>
                </mxCell>
                <mxCell id="280" value="" style="endArrow=classic;html=1;strokeColor=#000000;fontColor=#000000;strokeWidth=2;" edge="1" parent="1">
                    <mxGeometry width="50" height="50" relative="1" as="geometry">
                        <mxPoint x="677.5599999999998" y="805.9999999999998" as="sourcePoint"/>
                        <mxPoint x="757.5599999999998" y="805.9999999999998" as="targetPoint"/>
                    </mxGeometry>
                </mxCell>
                <mxCell id="281" value="q.size()" style="text;html=1;strokeColor=none;fillColor=none;align=center;verticalAlign=middle;whiteSpace=wrap;rounded=0;fontColor=#000000;" vertex="1" parent="1">
                    <mxGeometry x="683.56" y="786" width="60" height="20" as="geometry"/>
                </mxCell>
                <mxCell id="282" value="0" style="text;html=1;strokeColor=#FF66FF;fillColor=none;align=center;verticalAlign=middle;whiteSpace=wrap;rounded=0;fontColor=#000000;fontStyle=1;fontSize=14;labelBorderColor=none;strokeWidth=3;" vertex="1" parent="1">
                    <mxGeometry x="768.56" y="791" width="30" height="30" as="geometry"/>
                </mxCell>
                <mxCell id="283" value="&lt;font color=&quot;#ffffff&quot;&gt;s.top()&lt;/font&gt;" style="text;html=1;strokeColor=none;fillColor=none;align=center;verticalAlign=middle;whiteSpace=wrap;rounded=0;fontColor=#000000;" vertex="1" parent="1">
                    <mxGeometry x="-66" y="796" width="60" height="20" as="geometry"/>
                </mxCell>
                <mxCell id="284" value="&lt;font color=&quot;#ffffff&quot;&gt;s.top()&lt;/font&gt;" style="text;html=1;strokeColor=none;fillColor=none;align=center;verticalAlign=middle;whiteSpace=wrap;rounded=0;fontColor=#000000;" vertex="1" parent="1">
                    <mxGeometry x="204" y="884" width="60" height="20" as="geometry"/>
                </mxCell>
                <mxCell id="285" value="&lt;font color=&quot;#ffffff&quot;&gt;s.top()&lt;/font&gt;" style="text;html=1;strokeColor=none;fillColor=none;align=center;verticalAlign=middle;whiteSpace=wrap;rounded=0;fontColor=#000000;" vertex="1" parent="1">
                    <mxGeometry x="842" y="796" width="60" height="20" as="geometry"/>
                </mxCell>
            </root>
        </mxGraphModel>
    </diagram>
</mxfile>